<?xml version="1.0" standalone="no"?><!DOCTYPE svg PUBLIC "-//W3C//DTD SVG 1.1//EN" "http://www.w3.org/Graphics/SVG/1.1/DTD/svg11.dtd"><svg t="1605672614791" class="icon" viewBox="0 0 1586 1024" version="1.1" xmlns="http://www.w3.org/2000/svg" p-id="7851" width="198.25" height="128" xmlns:xlink="http://www.w3.org/1999/xlink"><defs><style type="text/css">@font-face { font-weight: 400; font-style: normal; font-family: Circular-Loom; src: url("https://cdn.loom.com/assets/fonts/circular/CircularXXWeb-Book-cd7d2bcec649b1243839a15d5eb8f0a3.woff2") format("woff2"); }
@font-face { font-weight: 500; font-style: normal; font-family: Circular-Loom; src: url("https://cdn.loom.com/assets/fonts/circular/CircularXXWeb-Medium-d74eac43c78bd5852478998ce63dceb3.woff2") format("woff2"); }
@font-face { font-weight: 700; font-style: normal; font-family: Circular-Loom; src: url("https://cdn.loom.com/assets/fonts/circular/CircularXXWeb-Bold-83b8ceaf77f49c7cffa44107561909e4.woff2") format("woff2"); }
@font-face { font-weight: 900; font-style: normal; font-family: Circular-Loom; src: url("https://cdn.loom.com/assets/fonts/circular/CircularXXWeb-Black-bf067ecb8aa777ceb6df7d72226febca.woff2") format("woff2"); }
</style></defs><path d="M427.714 569.669l42.201-73.094L556.78 826.98c4.588 17.451 23.06 31.864 41.17 31.864h466.45c-4.822-21.248-7.368-43.361-7.368-66.069 0-164.189 133.102-297.29 297.29-297.29 68.295 0 131.21 23.028 181.407 61.744l45.321-45.318-0.015-0.016c-61.854-61.853-144.196-90.74-225.205-86.664V356.6c0-72.91-56.838-116.735-126.951-98.146 0 0-162.773 47.938-249.246 47.938-3.075 0-6.186-0.024-9.333-0.07C959.267 255.668 850.145 199 710.53 174.382c-48.991-8.638-95.803-12.284-137.13-11.484l25.945-96.829H759.31V0.004H550.566l0.086 0.541L548.616 0 505.25 161.851H329.508c-18.037 0-32.91 14.898-32.91 33.275v134.958c0 18.783 14.734 33.275 32.91 33.275h64.75l-82.633 143.124c43.562 12.208 83.08 34.092 116.09 63.186zM231.226 1024c127.702 0 231.226-103.523 231.226-231.226 0-127.702-103.524-231.226-231.226-231.226C103.523 561.548 0 665.072 0 792.774 0 920.477 103.523 1024 231.226 1024z m1123.097 0c127.702 0 231.225-103.523 231.225-231.226 0-127.702-103.523-231.226-231.225-231.226-127.703 0-231.226 103.524-231.226 231.226 0 127.703 103.523 231.226 231.226 231.226z" p-id="7852" fill="#90A4AE"></path></svg>