<?xml version="1.0" standalone="no"?><!DOCTYPE svg PUBLIC "-//W3C//DTD SVG 1.1//EN" "http://www.w3.org/Graphics/SVG/1.1/DTD/svg11.dtd"><svg t="1559054282644" class="icon" style="" viewBox="0 0 1024 1024" version="1.1" xmlns="http://www.w3.org/2000/svg" p-id="6188" xmlns:xlink="http://www.w3.org/1999/xlink" width="200" height="200"><defs><style type="text/css"></style></defs><path d="M810.666667 938.666667H213.333333a128 128 0 0 1-128-128V128a42.666667 42.666667 0 0 1 42.666667-42.666667h597.333333a42.666667 42.666667 0 0 1 42.666667 42.666667v298.666667h170.666667v384a128 128 0 0 1-128 128z m-42.666667-426.666667v298.666667a42.666667 42.666667 0 0 0 85.333333 0v-298.666667h-85.333333zM213.333333 256v256h256V256H213.333333z m0 298.666667v85.333333h426.666667v-85.333333H213.333333z m0 128v85.333333h426.666667v-85.333333H213.333333z m85.333334-341.333334h85.333333v85.333334H298.666667V341.333333z" p-id="6189" fill="#90A4AE"></path></svg>
