<?xml version="1.0" standalone="no"?><!DOCTYPE svg PUBLIC "-//W3C//DTD SVG 1.1//EN" "http://www.w3.org/Graphics/SVG/1.1/DTD/svg11.dtd"><svg t="1559054315467" class="icon" style="" viewBox="0 0 1024 1024" version="1.1" xmlns="http://www.w3.org/2000/svg" p-id="7144" xmlns:xlink="http://www.w3.org/1999/xlink" width="200" height="200"><defs><style type="text/css"></style></defs><path d="M67.240939 511.188518l-0.38067 349.047698c0 21.139459 19.509333 41.355897 55.158251 41.355897l111.294782 0 5.326309 0 4.672416 0 4.510734 0L247.82276 456.355679 122.182248 456.355679C87.403141 457.06176 67.240939 490.320235 67.240939 511.188518z" p-id="7145" fill="#90A4AE"></path><path d="M845.43972 400.762523l-222.590588-0.054235C711.31907 108.122533 545.463648 122.523521 545.463648 122.523521c-59.72322 0-89.557712 51.136657-89.557712 111.186312-0.216941-1.792832-0.162706 0.054235-0.054235 0.706081-3.207042 96.404654-122.761951 200.201671-177.268356 218.7317l0 448.443475 511.208984 0c63.472614 0 84.340897-55.648414 84.340897-55.648414 36.138058-86.351694 80.97115-284.216133 82.004689-295.464315C969.451128 406.90236 845.43972 400.762523 845.43972 400.762523z" p-id="7146" fill="#90A4AE"></path></svg>