<?xml version="1.0" standalone="no"?><!DOCTYPE svg PUBLIC "-//W3C//DTD SVG 1.1//EN" "http://www.w3.org/Graphics/SVG/1.1/DTD/svg11.dtd"><svg t="1563257956410" class="icon" viewBox="0 0 1024 1024" version="1.1" xmlns="http://www.w3.org/2000/svg" p-id="2657" width="128" height="128" xmlns:xlink="http://www.w3.org/1999/xlink"><defs><style type="text/css"></style></defs><path d="M258.432 630.656C239.168 619.52 215.68 607.744 215.68 607.744l0.192-21.696c0 0 28.544-24.512 40.768-69.184 7.488-4.096 14.72 1.728 16.192-39.168 0.64-18.176-11.136-17.664-11.328-17.6 0.064-0.832 0.128-4.864 0.128-32.64 0-18.112-2.176-26.944-11.84-32.768 0-0.256 6.016-36.288-69.312-37.632-91.712 0-79.744 75.456-79.744 70.336 0 27.776 0.064 31.808 0.128 32.64-0.256 0-12.352-0.576-11.712 17.6 1.472 40.96 7.68 35.072 15.168 39.104 12.16 44.8 42.56 69.248 42.56 69.248l0.192 21.696-80.32 36.608c0 0-34.944 12.8-34.752 49.984l0 50.24 103.296 0 70.208 0.128c-0.064-20.096-0.384-9.664-0.128-25.216C206.208 664.96 244.224 639.168 258.432 630.656z" p-id="2658" fill="#90A4AE"></path><path d="M608.96 631.744 539.072 599.424 539.392 560c0 0 33.472-26.368 52.096-94.208 11.328-6.208 25.6-8.064 27.776-70.208C620.224 368 603.072 370.944 602.752 371.008c0.064-1.344 0.192-9.6 0.192-51.712 0 7.744 17.536-106.816-126.08-106.816 0 0-0.128 0-0.512 0-0.192 0-0.32 0-0.512 0l0 0.064C361.536 214.592 367.36 269.312 367.36 269.312c0 0.128 0.064 0.256 0.064 0.32C352.704 278.4 348.8 291.904 348.8 319.36c0 42.112 0.064 50.368 0.192 51.648C348.672 370.944 331.52 368 332.48 395.584c2.176 62.144 16.448 64.064 27.776 70.208C378.752 533.632 411.776 560 411.776 560l0.32 39.36-105.664 49.088c0 0-53.056 19.392-52.8 75.904l0.32 87.168 153.984 0C436.352 741.504 493.888 662.72 608.96 631.744z" p-id="2659" fill="#90A4AE"></path><path d="M992 731.584 737.6 512l0 126.272c-37.632 0.64-70.592 5.76-100.096 13.696-115.136 30.976-172.672 109.76-201.088 179.776-16 39.488-22.912 76.032-25.856 99.328l0.576 0c11.52-57.792 70.592-85.696 125.056-99.328 51.008-12.736 97.984-12.928 97.984-12.928l103.424 0 0 12.928 0 117.696L992 731.584z" p-id="2660" fill="#90A4AE"></path></svg>