<?xml version="1.0" standalone="no"?><!DOCTYPE svg PUBLIC "-//W3C//DTD SVG 1.1//EN" "http://www.w3.org/Graphics/SVG/1.1/DTD/svg11.dtd"><svg t="1589449094778" class="icon" viewBox="0 0 1024 1024" version="1.1" xmlns="http://www.w3.org/2000/svg" p-id="7633" width="64" height="64"><path d="M928.071 136.334H95.929c-17.6 0-32 14.4-32 32v687.333c0 17.6 14.4 32 32 32h832.143c17.6 0 32-14.4 32-32V168.334c-0.001-17.6-14.401-32-32.001-32z m-650.775 648.21c0 17.673-14.327 32-32 32h-83.193c-17.673 0-32-14.327-32-32v-61.386c0-17.673 14.327-32 32-32h83.193c17.673 0 32 14.327 32 32v61.386z m0-184.918c0 17.673-14.327 32-32 32h-83.193c-17.673 0-32-14.327-32-32V538.24c0-17.673 14.327-32 32-32h83.193c17.673 0 32 14.327 32 32v61.386z m0-184.919c0 17.673-14.327 32-32 32h-83.193c-17.673 0-32-14.327-32-32v-61.386c0-17.673 14.327-32 32-32h83.193c17.673 0 32 14.327 32 32v61.386zM481.18 784.544c0 17.673-14.327 32-32 32h-83.193c-17.673 0-32-14.327-32-32v-61.386c0-17.673 14.327-32 32-32h83.193c17.673 0 32 14.327 32 32v61.386z m0-184.918c0 17.673-14.327 32-32 32h-83.193c-17.673 0-32-14.327-32-32V538.24c0-17.673 14.327-32 32-32h83.193c17.673 0 32 14.327 32 32v61.386z m0-184.919c0 17.673-14.327 32-32 32h-83.193c-17.673 0-32-14.327-32-32v-61.386c0-17.673 14.327-32 32-32h83.193c17.673 0 32 14.327 32 32v61.386z m203.885 369.837c0 17.673-14.327 32-32 32h-83.193c-17.673 0-32-14.327-32-32v-61.386c0-17.673 14.327-32 32-32h83.193c17.673 0 32 14.327 32 32v61.386z m0-184.918c0 17.673-14.327 32-32 32h-83.193c-17.673 0-32-14.327-32-32V538.24c0-17.673 14.327-32 32-32h83.193c17.673 0 32 14.327 32 32v61.386z m0-184.919c0 17.673-14.327 32-32 32h-83.193c-17.673 0-32-14.327-32-32v-61.386c0-17.673 14.327-32 32-32h83.193c17.673 0 32 14.327 32 32v61.386z m203.884 369.837c0 17.673-14.327 32-32 32h-83.193c-17.673 0-32-14.327-32-32v-61.386c0-17.673 14.327-32 32-32h83.193c17.673 0 32 14.327 32 32v61.386z m0-184.918c0 17.673-14.327 32-32 32h-83.193c-17.673 0-32-14.327-32-32V538.24c0-17.673 14.327-32 32-32h83.193c17.673 0 32 14.327 32 32v61.386z m0-184.919c0 17.673-14.327 32-32 32h-83.193c-17.673 0-32-14.327-32-32v-61.386c0-17.673 14.327-32 32-32h83.193c17.673 0 32 14.327 32 32v61.386z" p-id="7634"></path></svg>
